<svg width="32" height="32" viewBox="0 0 32 32" fill="none" xmlns="http://www.w3.org/2000/svg">
<path d="M27.25 27.25L21.6425 21.6325L27.25 27.25ZM24.75 14.125C24.75 16.9429 23.6306 19.6454 21.638 21.638C19.6454 23.6306 16.9429 24.75 14.125 24.75C11.3071 24.75 8.60456 23.6306 6.61199 21.638C4.61942 19.6454 3.5 16.9429 3.5 14.125C3.5 11.3071 4.61942 8.60456 6.61199 6.61199C8.60456 4.61942 11.3071 3.5 14.125 3.5C16.9429 3.5 19.6454 4.61942 21.638 6.61199C23.6306 8.60456 24.75 11.3071 24.75 14.125V14.125Z" stroke="#22C3E6" stroke-width="2" stroke-linecap="round"/>
<rect x="0.5" y="0.5" width="31" height="31" rx="10.5" stroke="#22C3E6"/>
</svg>
